<svg width="11" height="11" viewBox="0 0 11 11" fill="none" xmlns="http://www.w3.org/2000/svg">
<path d="M1.70833 4.95833C1.41042 4.95833 1.15529 4.85217 0.942959 4.63983C0.730626 4.4275 0.62464 4.17256 0.625001 3.875V1.70833C0.625001 1.41042 0.731168 1.15529 0.943501 0.942959C1.15583 0.730626 1.41078 0.62464 1.70833 0.625001H3.875C4.17292 0.625001 4.42804 0.731168 4.64038 0.943501C4.85271 1.15583 4.9587 1.41078 4.95833 1.70833V3.875C4.95833 4.17292 4.85217 4.42804 4.63983 4.64038C4.4275 4.85271 4.17256 4.9587 3.875 4.95833H1.70833ZM1.70833 10.375C1.41042 10.375 1.15529 10.2688 0.942959 10.0565C0.730626 9.84417 0.62464 9.58922 0.625001 9.29167V7.125C0.625001 6.82708 0.731168 6.57196 0.943501 6.35963C1.15583 6.14729 1.41078 6.04131 1.70833 6.04167H3.875C4.17292 6.04167 4.42804 6.14783 4.64038 6.36017C4.85271 6.5725 4.9587 6.82745 4.95833 7.125V9.29167C4.95833 9.58958 4.85217 9.84471 4.63983 10.057C4.4275 10.2694 4.17256 10.3754 3.875 10.375H1.70833ZM7.125 4.95833C6.82708 4.95833 6.57196 4.85217 6.35963 4.63983C6.14729 4.4275 6.04131 4.17256 6.04167 3.875V1.70833C6.04167 1.41042 6.14783 1.15529 6.36017 0.942959C6.5725 0.730626 6.82745 0.62464 7.125 0.625001H9.29167C9.58958 0.625001 9.84471 0.731168 10.057 0.943501C10.2694 1.15583 10.3754 1.41078 10.375 1.70833V3.875C10.375 4.17292 10.2688 4.42804 10.0565 4.64038C9.84417 4.85271 9.58922 4.9587 9.29167 4.95833H7.125ZM7.125 10.375C6.82708 10.375 6.57196 10.2688 6.35963 10.0565C6.14729 9.84417 6.04131 9.58922 6.04167 9.29167V7.125C6.04167 6.82708 6.14783 6.57196 6.36017 6.35963C6.5725 6.14729 6.82745 6.04131 7.125 6.04167H9.29167C9.58958 6.04167 9.84471 6.14783 10.057 6.36017C10.2694 6.5725 10.3754 6.82745 10.375 7.125V9.29167C10.375 9.58958 10.2688 9.84471 10.0565 10.057C9.84417 10.2694 9.58922 10.3754 9.29167 10.375H7.125Z" fill="#232221"/>
</svg>
